Coordinates
version=1
nRows=26
nColumns=24
inDegrees=yes

Units are S.I. units (second, meters, Newtons, ...)
Angles are in degrees.

endheader
time	pelvis_tilt	pelvis_list	pelvis_rotation	pelvis_tx	pelvis_ty	pelvis_tz	hip_flexion_r	hip_adduction_r	hip_rotation_r	knee_angle_r	ankle_angle_r	subtalar_angle_r	mtp_angle_r	hip_flexion_l	hip_adduction_l	hip_rotation_l	knee_angle_l	ankle_angle_l	subtalar_angle_l	mtp_angle_l	lumbar_extension	lumbar_bending	lumbar_rotation
      4.30000000	    -17.86799794	     -7.90104479	      1.08672224	     -1.70847189	     -0.02720476	     -0.29559214	     28.13550921	     11.21016268	     -8.42452864	    -25.17483696	      9.37173741	    -12.54489742	      1.00477806	     32.60441040	    -10.62354190	     -3.10275049	    -63.87139225	     -6.14357677	     -8.61455521	     23.18513897	     22.90164280	      5.78766667	    -16.31334480
      4.30500000	    -17.84983116	     -7.55391561	      0.92357620	     -1.70279141	     -0.02589370	     -0.29506420	     27.33486531	     11.02494897	     -8.12269897	    -24.57688182	      9.45388289	    -12.30160329	      0.86903219	     33.15428233	    -10.28844900	     -3.40468808	    -63.36999504	     -5.59873533	     -8.72425955	     23.17206108	     22.78600629	      5.52987396	    -15.84916345
      4.31000000	    -17.89096752	     -7.24886217	      0.82801264	     -1.69715954	     -0.02470569	     -0.29462216	     26.60785145	     10.83830147	     -7.89852503	    -23.96594989	      9.49585948	    -12.10201105	      0.76671401	     33.79449870	     -9.95197654	     -3.61323237	    -62.83655686	     -5.09689908	     -8.86853212	     23.05442057	     22.73990454	      5.27529280	    -15.51921020
      4.31500000	    -17.92548113	     -6.94849448	      0.71283420	     -1.69153756	     -0.02357210	     -0.29418690	     25.87457593	     10.65777631	     -7.65737342	    -23.35318024	      9.54689068	    -11.87648426	      0.67050826	     34.40905346	     -9.64696052	     -3.86961719	    -62.25122681	     -4.63750913	     -9.06747055	     22.84124244	     22.68626364	      5.03765803	    -15.17596331
      4.32000000	    -17.95920197	     -6.65270349	      0.59399419	     -1.68593538	     -0.02249460	     -0.29376656	     25.14731401	     10.47459738	     -7.43267055	    -22.74474911	      9.59215593	    -11.64355135	      0.57279590	     35.00743893	     -9.36095715	     -4.14697253	    -61.61308571	     -4.20910260	     -9.27466949	     22.55217787	     22.63036183	      4.80748893	    -14.83110769
      4.32500000	    -17.99555324	     -6.35996602	      0.47177699	     -1.68034849	     -0.02147740	     -0.29336377	     24.42997716	     10.28675048	     -7.22203910	    -22.14221682	      9.63545935	    -11.40117652	      0.47465716	     35.59186076	     -9.09215542	     -4.44369691	    -60.92173381	     -3.80852012	     -9.46828944	     22.21027042	     22.57561816	      4.58325362	    -14.48653003
      4.33000000	    -18.03374926	     -6.07280545	      0.34684834	     -1.67478212	     -0.02052659	     -0.29298342	     23.72253710	     10.09674251	     -7.03021466	    -21.54647978	      9.67662746	    -11.14869916	      0.37657314	     36.16323251	     -8.84237833	     -4.75821318	    -60.18016064	     -3.43108370	     -9.63105481	     21.83910631	     22.52158838	      4.36824450	    -14.14253605
      4.33500000	    -18.07610108	     -5.79193363	      0.22145928	     -1.66923527	     -0.01964124	     -0.29262465	     23.02829932	      9.90438303	     -6.85742851	    -20.95823383	      9.71610471	    -10.88847161	      0.28248131	     36.72186445	     -8.61084944	     -5.08502320	    -59.38484710	     -3.07402057	     -9.74738680	     21.46933940	     22.47074432	      4.16031254	    -13.80278040
      4.34000000	    -18.12232402	     -5.52053007	      0.09561110	     -1.66370937	     -0.01883149	     -0.29228231	     22.34690385	      9.71443177	     -6.70755595	    -20.37734813	      9.75502532	    -10.62224424	      0.19658226	     37.27008320	     -8.40017159	     -5.42102028	    -58.54074613	     -2.73495410	     -9.80862713	     21.12758767	     22.42182118	      3.96202440	    -13.46870651
      4.34500000	    -18.16757682	     -5.25435026	     -0.03465598	     -1.65820742	     -0.01808334	     -0.29196395	     21.67451883	      9.52277673	     -6.57520076	    -19.80679463	      9.79413190	    -10.34494702	      0.11870972	     37.79746977	     -8.20800867	     -5.77404023	    -57.64290627	     -2.41133637	     -9.80831273	     20.81475438	     22.36915230	      3.77599396	    -13.13174500
      4.35000000	    -18.20961769	     -5.00028508	     -0.16776040	     -1.65272821	     -0.01740851	     -0.29166936	     21.00844291	      9.33702085	     -6.46274469	    -19.24642675	      9.83445841	    -10.05703109	      0.04937250	     38.30580199	     -8.03903431	     -6.13791199	    -56.69940506	     -2.09967192	     -9.74324944	     20.53604817	     22.31068772	      3.60549663	    -12.79676388
      4.35500000	    -18.23777700	     -4.75938490	     -0.31171134	     -1.64726121	     -0.01679743	     -0.29141893	     20.33126356	      9.15923375	     -6.34402195	    -18.68997546	      9.89317546	     -9.73748601	     -0.01218582	     38.77906015	     -7.89568888	     -6.52099510	    -55.71120539	     -1.78908665	     -9.62213162	     20.26882392	     22.23523222	      3.45773768	    -12.46241487
      4.36000000	    -18.30087993	     -4.51684621	     -0.43996867	     -1.64180912	     -0.01626974	     -0.29118030	     19.71058725	      8.96770971	     -6.29263591	    -18.15609283	      9.91751823	     -9.45754203	     -0.05188730	     39.27157246	     -7.74713748	     -6.88820577	    -54.66476468	     -1.50561594	     -9.38899082	     20.11913918	     22.19688425	      3.29693284	    -12.13853795
      4.36500000	    -18.34948923	     -4.28979039	     -0.58129061	     -1.63638509	     -0.01581087	     -0.29095508	     19.08124339	      8.79042561	     -6.22901594	    -17.63024557	      9.96024911	     -9.14464627	     -0.07086188	     39.73007106	     -7.62813675	     -7.27391471	    -53.57575307	     -1.22414290	     -9.11746239	     20.01244921	     22.14015311	      3.16085355	    -11.81171609
      4.37000000	    -18.39306942	     -4.07344532	     -0.73628303	     -1.63095952	     -0.01541168	     -0.29074469	     18.45544329	      8.62117344	     -6.18089887	    -17.11841949	     10.00526944	     -8.81833549	     -0.07383121	     40.15747433	     -7.53060537	     -7.66945894	    -52.43787521	     -0.95335068	     -8.78168489	     19.94782773	     22.07592233	      3.04296974	    -11.48063079
      4.37500000	    -18.46996593	     -3.87274576	     -0.85996290	     -1.62554735	     -0.01514520	     -0.29057857	     17.86452684	      8.45654224	     -6.13904019	    -16.59853475	     10.07249033	     -8.51775974	     -0.06440403	     40.61929710	     -7.43012939	     -8.03585469	    -51.27369468	     -0.69809736	     -8.37880181	     19.93928042	     22.04850181	      2.92297257	    -11.19549779
      4.38000000	    -18.51007999	     -3.67640586	     -1.04176206	     -1.62016350	     -0.01486998	     -0.29041852	     17.25817068	      8.29875654	     -6.11221776	    -16.11975963	     10.10709953	     -8.15638992	     -0.03711632	     41.00096235	     -7.37481130	     -8.46370316	    -50.05083505	     -0.44850530	     -7.91726448	     19.95832365	     21.97389602	      2.84568291	    -10.83413241
      4.38500000	    -18.54560191	     -3.49326666	     -1.21453582	     -1.61478929	     -0.01466028	     -0.29027486	     16.65637505	      8.14730700	     -6.08784208	    -15.65661316	     10.14391912	     -7.79202598	      0.00372109	     41.35837847	     -7.32739651	     -8.89067157	    -48.78340038	     -0.20423403	     -7.42913650	     19.99911286	     21.89403097	      2.77231674	    -10.49053108
      4.39000000	    -18.58938175	     -3.31848180	     -1.39816169	     -1.60942351	     -0.01453168	     -0.29017388	     16.06706721	      7.99975095	     -6.06195309	    -15.19637364	     10.18989478	     -7.42068202	      0.05793701	     41.70517974	     -7.28811437	     -9.31660950	    -47.48098462	      0.03207990	     -6.90272605	     20.06459180	     21.81837029	      2.71748216	    -10.16658149
      4.39500000	    -18.64363028	     -3.15773518	     -1.57558719	     -1.60405911	     -0.01447336	     -0.29006886	     15.49973375	      7.86198284	     -6.03267734	    -14.75621567	     10.23587918	     -7.04431257	      0.12152148	     42.04282354	     -7.25991917	     -9.73966250	    -46.13497457	      0.25009545	     -6.33102344	     20.14903069	     21.75883121	      2.66404338	     -9.85445625
      4.40000000	    -18.74654701	     -3.02328682	     -1.71813359	     -1.59867705	     -0.01458471	     -0.29004852	     14.96603332	      7.74184280	     -5.99281510	    -14.27996521	     10.32143482	     -6.71119592	      0.17282964	     42.43505697	     -7.22128397	    -10.11484963	    -44.78107444	      0.46546804	     -5.77633660	     20.22683722	     21.75379043	      2.62941198	     -9.62192401
      4.40500000	    -18.71911057	     -2.86543981	     -1.98474989	     -1.59335887	     -0.01453872	     -0.28990650	     14.34198913	      7.60923713	     -5.98563008	    -13.88850244	     10.37037683	     -6.22894663	      0.29053906	     42.62685871	     -7.26829754	    -10.67554231	    -43.36300727	      0.65861678	     -5.15084848	     20.36485085	     21.58561048	      2.62699758	     -9.16686842
      4.41000000	    -18.76699304	     -2.72533080	     -2.17038494	     -1.58799485	     -0.01465694	     -0.28985448	     13.78391560	      7.47787671	     -5.97006298	    -13.47075129	     10.42890679	     -5.83117090	      0.39944079	     42.89699527	     -7.25586991	    -11.12143211	    -41.91347561	      0.83050103	     -4.52214823	     20.49376035	     21.51385869	      2.59984061	     -8.86014534
      4.41500000	    -18.82527425	     -2.59765414	     -2.36409427	     -1.58264363	     -0.01484985	     -0.28981207	     13.24743522	      7.35707925	     -5.94587142	    -13.07066069	     10.48709900	     -5.42968923	      0.51592458	     43.16345945	     -7.25619077	    -11.57249101	    -40.44088861	      0.98301230	     -3.88092018	     20.62505555	     21.45020146	      2.58777191	     -8.55874985
      4.42000000	    -18.89128042	     -2.47737752	     -2.55658460	     -1.57728962	     -0.01510987	     -0.28979939	     12.72774198	      7.23880991	     -5.92348774	    -12.68514825	     10.54416564	     -5.03674799	      0.63446838	     43.42332109	     -7.25794998	    -12.02948867	    -38.94736290	      1.11338553	     -3.22142453	     20.75578478	     21.39279137	      2.58674731	     -8.26317761
      4.42500000	    -18.94952398	     -2.36103613	     -2.75381788	     -1.57192676	     -0.01541865	     -0.28978689	     12.20735213	      7.12128866	     -5.88821280	    -12.31476353	     10.60657336	     -4.63592120	      0.77051639	     43.65520128	     -7.26089294	    -12.49275604	    -37.42920667	      1.22845699	     -2.56440423	     20.89076923	     21.32745136	      2.58842593	     -7.96910380
